<svg xmlns="http://www.w3.org/2000/svg" xmlns:xlink="http://www.w3.org/1999/xlink" width="500" zoomAndPan="magnify" viewBox="0 0 375 374.999991" height="500" preserveAspectRatio="xMidYMid meet" version="1.0"><defs><g/></defs><path fill="#764c25" d="M 61.050781 163.261719 C 65.621094 159.394531 72.300781 159.011719 79.042969 161.558594 C 70.96875 157.914062 62.742188 158.011719 57.261719 162.648438 C 50.542969 168.335938 49.871094 179.21875 54.683594 189.796875 L 58.464844 187.273438 C 54.386719 177.875 55.085938 168.308594 61.050781 163.261719 " fill-opacity="1" fill-rule="nonzero"/><path fill="#37210f" d="M 62.429688 165.941406 C 60.496094 167.578125 59.179688 169.75 58.464844 172.253906 C 59.195312 170.554688 60.265625 169.0625 61.675781 167.867188 C 68.59375 162.011719 81.132812 165.453125 89.679688 175.550781 C 98.226562 185.652344 99.550781 198.585938 92.632812 204.441406 C 91.21875 205.632812 89.574219 206.441406 87.777344 206.886719 C 90.363281 206.59375 92.722656 205.652344 94.65625 204.015625 C 101.859375 197.917969 100.484375 184.453125 91.585938 173.941406 C 82.683594 163.425781 69.632812 159.84375 62.429688 165.941406 " fill-opacity="1" fill-rule="nonzero"/><path fill="#764c25" d="M 75.78125 171.566406 L 75.738281 171.597656 L 60.796875 181.558594 L 60.886719 181.558594 L 60.886719 185.660156 L 75.738281 175.761719 L 75.78125 175.730469 L 90.679688 185.722656 L 90.679688 181.558594 L 75.78125 171.566406 " fill-opacity="1" fill-rule="nonzero"/><path fill="#37210f" d="M 101.722656 188.355469 C 103.121094 195.425781 101.640625 201.949219 97.070312 205.820312 C 89.019531 212.632812 74.429688 208.628906 64.484375 196.878906 C 63.28125 195.457031 62.207031 193.988281 61.25 192.492188 L 75.738281 182.835938 L 75.78125 182.808594 L 90.679688 192.796875 L 90.679688 188.632812 L 75.78125 178.644531 L 75.738281 178.675781 L 59.199219 189.699219 L 55.761719 191.992188 C 55.921875 192.289062 56.085938 192.585938 56.25 192.886719 C 56.304688 192.980469 56.359375 193.074219 56.414062 193.171875 C 56.53125 193.378906 56.652344 193.585938 56.777344 193.792969 C 56.839844 193.898438 56.902344 194 56.964844 194.105469 C 57.105469 194.335938 57.246094 194.566406 57.394531 194.796875 C 58.46875 196.5 59.6875 198.167969 61.054688 199.78125 C 72.039062 212.761719 88.15625 217.183594 97.046875 209.660156 C 102.527344 205.019531 103.984375 196.921875 101.722656 188.355469 " fill-opacity="1" fill-rule="nonzero"/><path fill="#37210f" d="M 75.367188 193.570312 L 75.367188 189.738281 L 71.535156 189.738281 L 71.535156 193.570312 L 75.367188 193.570312 " fill-opacity="1" fill-rule="nonzero"/><path fill="#37210f" d="M 76.199219 193.570312 L 80.03125 193.570312 L 80.03125 189.738281 L 76.199219 189.738281 L 76.199219 193.570312 " fill-opacity="1" fill-rule="nonzero"/><path fill="#37210f" d="M 75.367188 194.398438 L 71.535156 194.398438 L 71.535156 198.234375 L 75.367188 198.234375 L 75.367188 194.398438 " fill-opacity="1" fill-rule="nonzero"/><path fill="#37210f" d="M 76.199219 194.398438 L 76.199219 198.234375 L 80.03125 198.234375 L 80.03125 194.398438 L 76.199219 194.398438 " fill-opacity="1" fill-rule="nonzero"/><g fill="#764c25" fill-opacity="1"><g transform="translate(106.087557, 199.9453)"><g><path d="M 17.5625 -7.078125 C 17.5625 -4.523438 16.832031 -2.644531 15.375 -1.4375 C 13.925781 -0.238281 11.84375 0.359375 9.125 0.359375 C 6.394531 0.359375 4.304688 -0.238281 2.859375 -1.4375 C 1.410156 -2.644531 0.6875 -4.523438 0.6875 -7.078125 L 0.6875 -7.34375 L 6.8125 -7.34375 L 6.8125 -7.109375 C 6.8125 -6.179688 6.984375 -5.519531 7.328125 -5.125 C 7.671875 -4.726562 8.195312 -4.53125 8.90625 -4.53125 C 9.625 -4.53125 10.15625 -4.726562 10.5 -5.125 C 10.84375 -5.519531 11.015625 -6.179688 11.015625 -7.109375 L 11.015625 -20.375 L 17.5625 -20.375 Z M 17.5625 -7.078125 "/></g></g></g><g fill="#764c25" fill-opacity="1"><g transform="translate(127.312584, 199.9453)"><g><path d="M 15.84375 0 L 14.984375 -2.875 L 7.84375 -2.875 L 6.984375 0 L 0.296875 0 L 7.734375 -20.375 L 15.34375 -20.375 L 22.765625 0 Z M 9.203125 -7.4375 L 13.625 -7.4375 L 11.484375 -14.6875 L 11.375 -14.6875 Z M 9.203125 -7.4375 "/></g></g></g><g fill="#764c25" fill-opacity="1"><g transform="translate(151.823381, 199.9453)"><g><path d="M 2.484375 0 L 2.484375 -20.375 L 9.03125 -20.375 L 9.03125 0 Z M 2.484375 0 "/></g></g></g><g fill="#764c25" fill-opacity="1"><g transform="translate(164.819171, 199.9453)"><g><path d="M 10.75 -20.734375 C 13.351562 -20.734375 15.492188 -20.203125 17.171875 -19.140625 C 18.847656 -18.085938 19.707031 -16.523438 19.75 -14.453125 L 19.75 -14.09375 L 13.625 -14.09375 L 13.625 -14.21875 C 13.625 -14.800781 13.40625 -15.289062 12.96875 -15.6875 C 12.53125 -16.082031 11.867188 -16.28125 10.984375 -16.28125 C 10.117188 -16.28125 9.453125 -16.148438 8.984375 -15.890625 C 8.523438 -15.640625 8.296875 -15.328125 8.296875 -14.953125 C 8.296875 -14.421875 8.609375 -14.023438 9.234375 -13.765625 C 9.867188 -13.515625 10.882812 -13.25 12.28125 -12.96875 C 13.925781 -12.632812 15.273438 -12.285156 16.328125 -11.921875 C 17.378906 -11.554688 18.300781 -10.957031 19.09375 -10.125 C 19.882812 -9.300781 20.289062 -8.175781 20.3125 -6.75 C 20.3125 -4.34375 19.492188 -2.554688 17.859375 -1.390625 C 16.234375 -0.222656 14.0625 0.359375 11.34375 0.359375 C 8.164062 0.359375 5.691406 -0.171875 3.921875 -1.234375 C 2.148438 -2.304688 1.265625 -4.195312 1.265625 -6.90625 L 7.46875 -6.90625 C 7.46875 -5.875 7.734375 -5.1875 8.265625 -4.84375 C 8.796875 -4.5 9.625 -4.328125 10.75 -4.328125 C 11.570312 -4.328125 12.253906 -4.414062 12.796875 -4.59375 C 13.347656 -4.769531 13.625 -5.132812 13.625 -5.6875 C 13.625 -6.175781 13.320312 -6.546875 12.71875 -6.796875 C 12.113281 -7.046875 11.128906 -7.304688 9.765625 -7.578125 C 8.109375 -7.929688 6.738281 -8.300781 5.65625 -8.6875 C 4.570312 -9.070312 3.625 -9.707031 2.8125 -10.59375 C 2 -11.488281 1.59375 -12.695312 1.59375 -14.21875 C 1.59375 -16.445312 2.457031 -18.085938 4.1875 -19.140625 C 5.914062 -20.203125 8.101562 -20.734375 10.75 -20.734375 Z M 10.75 -20.734375 "/></g></g></g><g fill="#341710" fill-opacity="1"><g transform="translate(187.673489, 199.9453)"><g/></g></g><g fill="#341710" fill-opacity="1"><g transform="translate(199.011589, 199.9453)"><g><path d="M 2.484375 0 L 2.484375 -20.375 L 9.03125 -20.375 L 9.03125 0 Z M 2.484375 0 "/></g></g></g><g fill="#341710" fill-opacity="1"><g transform="translate(212.007376, 199.9453)"><g><path d="M 16.765625 0 L 8.203125 -9.890625 L 8.203125 0 L 2.1875 0 L 2.1875 -20.375 L 7.90625 -20.375 L 16.46875 -10.328125 L 16.46875 -20.375 L 22.46875 -20.375 L 22.46875 0 Z M 16.765625 0 "/></g></g></g><g fill="#341710" fill-opacity="1"><g transform="translate(238.146269, 199.9453)"><g><path d="M 13.921875 -15.15625 L 13.921875 0 L 7.375 0 L 7.375 -15.15625 L 0.6875 -15.15625 L 0.6875 -20.375 L 20.578125 -20.375 L 20.578125 -15.15625 Z M 13.921875 -15.15625 "/></g></g></g><g fill="#341710" fill-opacity="1"><g transform="translate(260.999375, 199.9453)"><g><path d="M 2.1875 -20.375 L 19.8125 -20.375 L 19.8125 -15.484375 L 8.734375 -15.484375 L 8.734375 -12.671875 L 18.203125 -12.671875 L 18.203125 -8 L 8.734375 -8 L 8.734375 -4.890625 L 20.015625 -4.890625 L 20.015625 0 L 2.1875 0 Z M 2.1875 -20.375 "/></g></g></g><g fill="#341710" fill-opacity="1"><g transform="translate(283.852481, 199.9453)"><g><path d="M 21.53125 -14.125 C 21.53125 -12.882812 21.191406 -11.757812 20.515625 -10.75 C 19.847656 -9.738281 18.875 -9 17.59375 -8.53125 L 22.125 0 L 14.78125 0 L 11.15625 -7.4375 L 8.734375 -7.4375 L 8.734375 0 L 2.1875 0 L 2.1875 -20.375 L 14.65625 -20.375 C 16.113281 -20.375 17.359375 -20.09375 18.390625 -19.53125 C 19.429688 -18.96875 20.210938 -18.207031 20.734375 -17.25 C 21.265625 -16.289062 21.53125 -15.25 21.53125 -14.125 Z M 14.859375 -13.859375 C 14.859375 -14.390625 14.679688 -14.832031 14.328125 -15.1875 C 13.972656 -15.539062 13.539062 -15.71875 13.03125 -15.71875 L 8.734375 -15.71875 L 8.734375 -11.96875 L 13.03125 -11.96875 C 13.539062 -11.96875 13.972656 -12.148438 14.328125 -12.515625 C 14.679688 -12.878906 14.859375 -13.328125 14.859375 -13.859375 Z M 14.859375 -13.859375 "/></g></g></g><g fill="#341710" fill-opacity="1"><g transform="translate(308.363275, 199.9453)"><g><path d="M 2.484375 0 L 2.484375 -20.375 L 9.03125 -20.375 L 9.03125 0 Z M 2.484375 0 "/></g></g></g><g fill="#341710" fill-opacity="1"><g transform="translate(321.359059, 199.9453)"><g><path d="M 12.3125 -20.734375 C 15.832031 -20.734375 18.546875 -19.832031 20.453125 -18.03125 C 22.367188 -16.238281 23.328125 -13.625 23.328125 -10.1875 C 23.328125 -6.75 22.367188 -4.128906 20.453125 -2.328125 C 18.546875 -0.535156 15.832031 0.359375 12.3125 0.359375 C 8.800781 0.359375 6.09375 -0.53125 4.1875 -2.3125 C 2.28125 -4.101562 1.328125 -6.726562 1.328125 -10.1875 C 1.328125 -13.644531 2.28125 -16.265625 4.1875 -18.046875 C 6.09375 -19.835938 8.800781 -20.734375 12.3125 -20.734375 Z M 12.3125 -15.84375 C 10.914062 -15.84375 9.851562 -15.414062 9.125 -14.5625 C 8.394531 -13.71875 8.03125 -12.578125 8.03125 -11.140625 L 8.03125 -9.234375 C 8.03125 -7.796875 8.394531 -6.648438 9.125 -5.796875 C 9.851562 -4.953125 10.914062 -4.53125 12.3125 -4.53125 C 13.71875 -4.53125 14.789062 -4.953125 15.53125 -5.796875 C 16.269531 -6.648438 16.640625 -7.796875 16.640625 -9.234375 L 16.640625 -11.140625 C 16.640625 -12.578125 16.269531 -13.71875 15.53125 -14.5625 C 14.789062 -15.414062 13.71875 -15.84375 12.3125 -15.84375 Z M 12.3125 -15.84375 "/></g></g></g></svg>